<svg xmlns="http://www.w3.org/2000/svg" width="400" height="400"><g fill="white"><circle cx="165" cy="77" r="1.3" fill-opacity="0.67"/><circle cx="37" cy="274" r="0.6" fill-opacity="0.49"/><circle cx="29" cy="259" r="0.8" fill-opacity="0.27"/><circle cx="222" cy="214" r="0.6" fill-opacity="0.41"/><circle cx="282" cy="217" r="0.6" fill-opacity="0.79"/><circle cx="63" cy="114" r="0.6" fill-opacity="0.63"/><circle cx="203" cy="25" r="0.8" fill-opacity="0.28"/><circle cx="68" cy="148" r="1.3" fill-opacity="0.34"/><circle cx="60" cy="292" r="1.0" fill-opacity="0.61"/><circle cx="349" cy="92" r="0.6" fill-opacity="0.63"/><circle cx="327" cy="96" r="1.0" fill-opacity="0.31"/><circle cx="364" cy="32" r="0.6" fill-opacity="0.65"/><circle cx="254" cy="348" r="1.3" fill-opacity="0.76"/><circle cx="238" cy="299" r="1.3" fill-opacity="0.49"/><circle cx="127" cy="92" r="0.8" fill-opacity="0.30"/><circle cx="153" cy="268" r="1.3" fill-opacity="0.82"/><circle cx="373" cy="229" r="1.0" fill-opacity="0.65"/><circle cx="37" cy="60" r="1.3" fill-opacity="0.36"/><circle cx="175" cy="77" r="1.3" fill-opacity="0.52"/><circle cx="342" cy="39" r="1.0" fill-opacity="0.47"/><circle cx="179" cy="304" r="1.3" fill-opacity="0.63"/><circle cx="233" cy="35" r="0.6" fill-opacity="0.86"/><circle cx="242" cy="356" r="0.6" fill-opacity="0.29"/><circle cx="359" cy="158" r="1.3" fill-opacity="0.43"/><circle cx="197" cy="342" r="1.0" fill-opacity="0.26"/><circle cx="236" cy="181" r="0.8" fill-opacity="0.65"/><circle cx="252" cy="30" r="0.8" fill-opacity="0.75"/><circle cx="66" cy="378" r="0.8" fill-opacity="0.51"/><circle cx="254" cy="41" r="0.8" fill-opacity="0.54"/><circle cx="281" cy="142" r="0.8" fill-opacity="0.78"/><circle cx="281" cy="142" r="1.3" fill-opacity="0.89"/><circle cx="349" cy="194" r="0.8" fill-opacity="0.35"/><circle cx="90" cy="77" r="0.8" fill-opacity="0.68"/><circle cx="6" cy="248" r="0.8" fill-opacity="0.42"/><circle cx="2" cy="74" r="1.3" fill-opacity="0.60"/><circle cx="312" cy="289" r="1.0" fill-opacity="0.87"/><circle cx="353" cy="263" r="0.6" fill-opacity="0.55"/><circle cx="399" cy="348" r="1.3" fill-opacity="0.51"/><circle cx="201" cy="53" r="1.3" fill-opacity="0.66"/><circle cx="31" cy="97" r="0.6" fill-opacity="0.89"/><circle cx="225" cy="83" r="0.6" fill-opacity="0.47"/><circle cx="26" cy="52" r="0.6" fill-opacity="0.62"/><circle cx="274" cy="51" r="1.0" fill-opacity="0.65"/><circle cx="36" cy="106" r="1.3" fill-opacity="0.35"/><circle cx="129" cy="177" r="1.0" fill-opacity="0.56"/><circle cx="59" cy="249" r="1.3" fill-opacity="0.56"/></g></svg>